<?xml version="1.0" encoding="UTF-8" standalone="no"?>
<svg
   xmlns:dc="http://purl.org/dc/elements/1.1/"
   xmlns:cc="http://creativecommons.org/ns#"
   xmlns:rdf="http://www.w3.org/1999/02/22-rdf-syntax-ns#"
   xmlns:svg="http://www.w3.org/2000/svg"
   xmlns="http://www.w3.org/2000/svg"
   xmlns:sodipodi="http://sodipodi.sourceforge.net/DTD/sodipodi-0.dtd"
   xmlns:inkscape="http://www.inkscape.org/namespaces/inkscape"
   version="1.1"
   width="700"
   height="700"
   id="svg8"
   viewBox="0 0 700 700"
   sodipodi:docname="bts-logo.svg"
   inkscape:version="0.92.4 (5da689c313, 2019-01-14)"
   inkscape:export-filename="G:\Users\suitedoalex\sites\bts-logo-0.png"
   inkscape:export-xdpi="561.73712"
   inkscape:export-ydpi="561.73712">
  <metadata
     id="metadata14">
    <rdf:RDF>
      <cc:Work
         rdf:about="">
        <dc:format>image/svg+xml</dc:format>
        <dc:type
           rdf:resource="http://purl.org/dc/dcmitype/StillImage" />
        <dc:title></dc:title>
      </cc:Work>
    </rdf:RDF>
  </metadata>
  <defs
     id="defs12" />
  <sodipodi:namedview
     pagecolor="#ffffff"
     bordercolor="#666666"
     borderopacity="1"
     objecttolerance="10"
     gridtolerance="10"
     guidetolerance="10"
     inkscape:pageopacity="0"
     inkscape:pageshadow="2"
     inkscape:window-width="1600"
     inkscape:window-height="837"
     id="namedview10"
     showgrid="false"
     inkscape:zoom="0.40739734"
     inkscape:cx="632.91527"
     inkscape:cy="-388.52816"
     inkscape:window-x="-8"
     inkscape:window-y="-8"
     inkscape:window-maximized="1"
     inkscape:current-layer="svg8" />
  <path
     d="M 245.50248,471.2727 342.8645,436.1885 V 202.22935 l -97.36202,-75.42897 z m 0.78237,101.92691 h 12.29849 11.94458 c 6.97552,0 12.68695,-5.68052 12.68695,-12.62327 v -16.04293 c 0,-5.15331 -3.14449,-9.60968 -7.61788,-11.56462 3.87345,-2.07245 6.52587,-6.1435 6.52587,-10.80533 v -14.67397 c 0,-6.73735 -5.53929,-12.25065 -12.31244,-12.25065 h -11.22709 -12.29849 v 10.2703 22.60872 10.42843 23.831 z m 12.29849,-10.82232 v -23.831 h 8.12199 c 2.46458,0 4.48131,2.00823 4.48131,4.46553 v 14.903 c 0,2.45547 -2.01673,4.46246 -4.48131,4.46246 z m 0,-34.25942 v -22.60872 h 7.61539 c 2.33673,0 4.25164,1.90279 4.25164,4.23343 v 14.14067 c 0,2.32457 -1.9149,4.23462 -4.25164,4.23462 z m 91.01673,-32.87902 h -6.1514 -16.69065 l 4.86244,10.99264 h 11.82821 v 66.96813 H 355.749 v -66.96813 h 11.82704 l 4.86426,-10.99265 H 355.749 Z m 78.82607,77.96077 h 15.94593 c 5.14179,0 9.34308,-4.18494 9.34308,-9.29944 0,-7.00039 0,-14.00132 0,-21.00106 0,-1.22227 -0.38296,-4.46253 -2.9493,-6.36589 -2.56818,-1.9022 -16.17502,-11.31198 -16.17502,-11.31198 -1.35435,-1.02473 -2.98989,-2.33124 -3.39472,-4.62668 v -2.28215 -0.0624 -0.08 -0.0794 -0.0776 -0.0769 -0.0776 -0.083 -0.0745 -0.0782 -0.0764 -0.0824 -0.0763 -0.0764 -0.08 -0.0763 -0.0806 -0.0751 -0.0812 -0.0764 -0.0776 -0.08 -0.0776 -0.0782 -0.0793 -0.0782 -0.0794 -0.0751 -0.0793 -0.0776 -0.08 -0.0776 -0.0781 -0.0764 -0.0824 -0.0751 -6.67006 c 0,-1.53742 1.26043,-2.79726 2.80754,-2.79726 h 4.78849 c 1.54586,0 2.80877,1.25984 2.80877,2.79726 v 9.39278 h 12.11424 v -13.77106 c 0,-5.11574 -4.20129,-9.30251 -9.34308,-9.30251 h -15.94593 c -5.14297,0 -9.34551,4.18677 -9.34551,9.30251 v 9.72305 0.15453 0.15088 0.15453 0.15453 0.15093 0.15755 0.14969 0.15631 0.15093 0.15571 0.15329 0.15094 0.15146 0.15577 0.1527 0.15271 0.15453 0.15572 0.15152 0.15146 0.15577 0.1527 0.1527 0.15453 0.15088 0.15454 0.0612 5.76234 c 0,0 -0.34842,4.5715 5.77806,8.59771 6.11867,4.02616 15.2442,10.11452 15.2442,10.11452 1.70826,0.93258 1.52408,4.35644 1.49802,5.99079 0,3.58139 0,7.16272 0,10.74594 0,1.53559 -1.2629,2.79236 -2.80877,2.79236 h -4.78849 c -1.54711,0 -2.80754,-1.25677 -2.80754,-2.79236 v -10.74606 h -12.11549 v 15.12239 c 0,5.1145 4.20254,9.29944 9.34552,9.29945 z m 26.07138,-101.92691 -97.36203,-35.0842 V 202.22935 l 97.36203,-75.42896 z"
     style="fill:#000000;fill-rule:evenodd;stroke-width:0.59072554"
     id="path6"
     inkscape:connector-curvature="0"
     inkscape:export-filename="G:\Users\suitedoalex\sites\bts-logo-4.png"
     inkscape:export-xdpi="321.53873"
     inkscape:export-ydpi="321.53873" />
  <path
     d="m 43.272206,1027.9828 h 36.020363 34.983811 c 20.43022,0 37.15811,-16.6373 37.15811,-36.97137 v -46.9873 c 0,-15.0933 -9.20973,-28.1453 -22.31159,-33.871 11.34473,-6.0699 19.11326,-17.9933 19.11326,-31.6471 v -42.97779 c 0,-19.73265 -16.22372,-35.88025 -36.06122,-35.88025 H 79.29254 43.272177 v 30.08011 66.21743 30.5432 69.7973 z m 36.020363,-31.69677 v -69.7973 h 23.788041 c 7.21837,0 13.12506,5.8818 13.12506,13.0789 v 43.6484 c 0,7.1918 -5.90669,13.07 -13.12506,13.07 z m 0,-100.3405 v -66.2174 h 22.304291 c 6.84392,0 12.45239,5.57298 12.45239,12.39906 v 41.41584 c 0,6.8083 -5.60844,12.4025 -12.45239,12.4025 z M 345.86642,799.64802 h -18.0165 -48.88431 l 14.24133,32.19573 h 34.64298 v 196.13905 h 36.02576 V 831.84375 h 34.63955 l 14.24667,-32.19576 h -48.88622 z m 230.86929,228.33478 h 46.70314 c 15.05951,0 27.36443,-12.2569 27.36443,-27.2365 v -61.50877 c 0,-3.5798 -1.12163,-13.0701 -8.63804,-18.6447 -7.5218,-5.5712 -47.37412,-33.131 -47.37412,-33.131 -3.96668,-3.0013 -8.75692,-6.8279 -9.9426,-13.5509 v -6.684 -0.1828 -0.2343 -0.2325 -0.2273 -0.2252 -0.2273 -0.2431 -0.2182 -0.229 -0.2238 -0.2413 -0.2235 -0.2238 -0.2343 -0.2235 -0.236 -0.22 -0.2378 -0.2238 -0.2272 -0.2344 -0.2272 -0.2291 -0.2322 -0.2291 -0.2325 -0.22 -0.2322 -0.2273 -0.2343 -0.2273 -0.2287 -0.2238 -0.2413 -0.22 -19.53555 c 0,-4.50287 3.6916,-8.19274 8.22285,-8.19274 h 14.02474 c 4.52758,0 8.22645,3.68987 8.22645,8.19274 v 27.50995 h 35.48072 v -40.33326 c 0,-14.9832 -12.30492,-27.2456 -27.36443,-27.2456 h -46.70314 c -15.06296,0 -27.37155,12.2624 -27.37155,27.2456 v 28.47726 0.4526 0.4419 0.4526 0.4526 0.4421 0.4614 0.4384 0.4578 0.4421 0.456 0.449 0.4421 0.4436 0.4562 0.4473 0.4472 0.4526 0.4561 0.4438 0.4436 0.4562 0.4472 0.4473 0.4526 0.4419 0.4526 0.1792 16.877 c 0,0 -1.02047,13.3892 16.92304,25.1814 17.92063,11.792 44.64789,29.6238 44.64789,29.6238 5.00323,2.7314 4.46379,12.7595 4.38747,17.5461 v 31.4733 c 0,4.4973 -3.69884,8.1782 -8.22645,8.1782 h -14.02474 c -4.53125,0 -8.22285,-3.6809 -8.22285,-8.1782 v -31.4736 h -35.48439 v 44.29107 c 0,14.9796 12.30859,27.2365 27.37158,27.2365 z"
     style="fill:#000000;fill-rule:evenodd;stroke-width:1.73014319"
     id="path6-6"
     inkscape:connector-curvature="0"
     inkscape:export-filename="G:\Users\suitedoalex\sites\bts-logo-5.png"
     inkscape:export-xdpi="63.206638"
     inkscape:export-ydpi="63.206638"
     sodipodi:nodetypes="ccssscssscccccccccsssscccsssscccccccccccccsssscccccccccccccccccccccccccccccccccccccccssssccssssccccccccccccccccccccccccccccccccssssccss" />
</svg>
