<svg xmlns="http://www.w3.org/2000/svg"  viewBox="0 0 64 64" width="256px" height="256px"><linearGradient id="UBJxBlUl4CROKrw~mPgopa" x1="5.5" x2="5.5" y1="43" y2="24" gradientTransform="matrix(1 0 0 -1 0 66)" gradientUnits="userSpaceOnUse" spreadMethod="reflect"><stop offset="0" stop-color="#6dc7ff"/><stop offset="1" stop-color="#e6abff"/></linearGradient><path fill="url(#UBJxBlUl4CROKrw~mPgopa)" d="M4 23H7V42H4z"/><linearGradient id="UBJxBlUl4CROKrw~mPgopb" x1="32.5" x2="32.5" y1="37" y2="24" gradientTransform="matrix(1 0 0 -1 0 66)" gradientUnits="userSpaceOnUse" spreadMethod="reflect"><stop offset="0" stop-color="#6dc7ff"/><stop offset="1" stop-color="#e6abff"/></linearGradient><path fill="url(#UBJxBlUl4CROKrw~mPgopb)" d="M31 29H34V42H31z"/><linearGradient id="UBJxBlUl4CROKrw~mPgopc" x1="5.5" x2="5.5" y1="43.833" y2="20.999" gradientTransform="matrix(1 0 0 -1 0 66)" gradientUnits="userSpaceOnUse" spreadMethod="reflect"><stop offset="0" stop-color="#1a6dff"/><stop offset="1" stop-color="#c822ff"/></linearGradient><path fill="url(#UBJxBlUl4CROKrw~mPgopc)" d="M2,21v23h7V21H2z M7,42H4V23h3V42z"/><linearGradient id="UBJxBlUl4CROKrw~mPgopd" x1="16" x2="16" y1="43.833" y2="20.999" gradientTransform="matrix(1 0 0 -1 0 66)" gradientUnits="userSpaceOnUse" spreadMethod="reflect"><stop offset="0" stop-color="#1a6dff"/><stop offset="1" stop-color="#c822ff"/></linearGradient><path fill="url(#UBJxBlUl4CROKrw~mPgopd)" d="M21,35v5c0,2.21-1.79,4-4,4h-6v-4h3v-6h-3v-4h3v-5h-3v-4h5c2.21,0,4,1.79,4,4v4 c0,1.66-1.34,3-3,3h1C19.66,32,21,33.34,21,35z"/><linearGradient id="UBJxBlUl4CROKrw~mPgope" x1="32.5" x2="32.5" y1="43.833" y2="20.999" gradientTransform="matrix(1 0 0 -1 0 66)" gradientUnits="userSpaceOnUse" spreadMethod="reflect"><stop offset="0" stop-color="#1a6dff"/><stop offset="1" stop-color="#c822ff"/></linearGradient><path fill="url(#UBJxBlUl4CROKrw~mPgope)" d="M42 21L23 21 23 25 42 25z"/><linearGradient id="UBJxBlUl4CROKrw~mPgopf" x1="32.5" x2="32.5" y1="43.833" y2="20.999" gradientTransform="matrix(1 0 0 -1 0 66)" gradientUnits="userSpaceOnUse" spreadMethod="reflect"><stop offset="0" stop-color="#1a6dff"/><stop offset="1" stop-color="#c822ff"/></linearGradient><path fill="url(#UBJxBlUl4CROKrw~mPgopf)" d="M29,27v17h7V27H29z M34,42h-3V29h3V42z"/><linearGradient id="UBJxBlUl4CROKrw~mPgopg" x1="58" x2="58" y1="43.833" y2="20.999" gradientTransform="matrix(1 0 0 -1 0 66)" gradientUnits="userSpaceOnUse" spreadMethod="reflect"><stop offset="0" stop-color="#1a6dff"/><stop offset="1" stop-color="#c822ff"/></linearGradient><path fill="url(#UBJxBlUl4CROKrw~mPgopg)" d="M62 21L54 21 54 25 62 25z"/><linearGradient id="UBJxBlUl4CROKrw~mPgoph" x1="49" x2="49" y1="43.833" y2="20.999" gradientTransform="matrix(1 0 0 -1 0 66)" gradientUnits="userSpaceOnUse" spreadMethod="reflect"><stop offset="0" stop-color="#1a6dff"/><stop offset="1" stop-color="#c822ff"/></linearGradient><path fill="url(#UBJxBlUl4CROKrw~mPgoph)" d="M53 40L45 40 45 44 53 44z"/><linearGradient id="UBJxBlUl4CROKrw~mPgopi" x1="53.5" x2="53.5" y1="43.833" y2="20.999" gradientTransform="matrix(1 0 0 -1 0 66)" gradientUnits="userSpaceOnUse" spreadMethod="reflect"><stop offset="0" stop-color="#1a6dff"/><stop offset="1" stop-color="#c822ff"/></linearGradient><path fill="url(#UBJxBlUl4CROKrw~mPgopi)" d="M58.78,30.36L52,29v-8h-3c-2.21,0-4,1.79-4,4v4.72c0,1.91,1.35,3.55,3.22,3.92L55,35v9h3 c2.21,0,4-1.79,4-4v-5.72C62,32.37,60.65,30.73,58.78,30.36z M60,40c0,1.1-0.9,2-2,2h-1v-8.64l-1.61-0.32l-6.78-1.36 C47.68,31.5,47,30.67,47,29.72V25c0-1.1,0.9-2,2-2h1v7.64l1.61,0.32l6.78,1.36C59.32,32.5,60,33.33,60,34.28V40z"/><linearGradient id="UBJxBlUl4CROKrw~mPgopj" x1="53.5" x2="53.5" y1="43" y2="24" gradientTransform="matrix(1 0 0 -1 0 66)" gradientUnits="userSpaceOnUse" spreadMethod="reflect"><stop offset="0" stop-color="#6dc7ff"/><stop offset="1" stop-color="#e6abff"/></linearGradient><path fill="url(#UBJxBlUl4CROKrw~mPgopj)" d="M60,34.28V40c0,1.1-0.9,2-2,2h-1v-8.64l-1.61-0.32l-6.78-1.36C47.68,31.5,47,30.67,47,29.72 V25c0-1.1,0.9-2,2-2h1v7.64l1.61,0.32l6.78,1.36C59.32,32.5,60,33.33,60,34.28z"/></svg>